<svg width="20" height="16" viewBox="0 0 20 16" fill="none" xmlns="http://www.w3.org/2000/svg">
<path fill-rule="evenodd" clip-rule="evenodd" d="M5.633 1.39991C5.34807 1.39986 5.07743 1.39982 4.85539 1.42967C4.60732 1.46302 4.33221 1.54322 4.10452 1.77091C3.87683 1.9986 3.79664 2.2737 3.76329 2.52178C3.73343 2.74382 3.73348 3.01447 3.73352 3.29939L3.73353 14.5999H11.7335V11.3332H12.9334V14.5998H16.2668L16.2668 8.63258C16.2668 8.34766 16.2669 8.07701 16.237 7.85498C16.2037 7.6069 16.1235 7.3318 15.8958 7.10411C15.6681 6.87642 15.393 6.79622 15.1449 6.76287C14.9229 6.73302 14.6523 6.73306 14.3673 6.73311L12.2668 6.73311L12.2668 3.29938C12.2668 3.01446 12.2669 2.74382 12.237 2.52178C12.2037 2.2737 12.1235 1.9986 11.8958 1.77091C11.6681 1.54322 11.393 1.46302 11.1449 1.42967C10.9229 1.39982 10.6523 1.39986 10.3673 1.39991H5.633ZM9.6668 7.93323H6.3335V6.73323H9.6668V7.93323ZM9.6668 5.26656H6.3335V4.06656H9.6668V5.26656Z" fill="#9A9A9A"/>
</svg>
