<svg width="24" height="24" viewBox="0 0 24 24" fill="none" xmlns="http://www.w3.org/2000/svg">
<path fill-rule="evenodd" clip-rule="evenodd" d="M12.5468 2.28459C12.2241 2.03783 11.7761 2.03783 11.4534 2.28459L2.9534 8.78453C2.73072 8.95481 2.6001 9.21913 2.6001 9.49946L2.6001 18.9293C2.60007 19.1836 2.60005 19.4256 2.61671 19.6296C2.63489 19.852 2.67727 20.1071 2.80719 20.3621C2.98935 20.7196 3.28001 21.0103 3.63752 21.1924C3.8925 21.3223 4.14761 21.3647 4.37001 21.3829C4.57396 21.3996 4.81598 21.3995 5.07029 21.3995H18.9299C19.1842 21.3995 19.4262 21.3996 19.6302 21.3829C19.8526 21.3647 20.1077 21.3223 20.3627 21.1924C20.7202 21.0103 21.0109 20.7196 21.193 20.3621C21.3229 20.1071 21.3653 19.852 21.3835 19.6296C21.4002 19.4257 21.4001 19.1836 21.4001 18.9293L21.4001 9.49946C21.4001 9.21913 21.2695 8.95481 21.0468 8.78453L12.5468 2.28459ZM11.9394 4.17901C11.9752 4.15159 12.025 4.15159 12.0608 4.17901L19.5609 9.91425C19.5856 9.93317 19.6001 9.96254 19.6001 9.99368V19.4996C19.6001 19.5548 19.5553 19.5996 19.5001 19.5996H12.9004V13.9995H11.1004V19.5996H4.5001C4.44488 19.5996 4.4001 19.5548 4.4001 19.4996V9.99368C4.4001 9.96254 4.41462 9.93317 4.43936 9.91425L11.9394 4.17901Z" fill="#9A9A9A"/>
</svg>
