<svg width="24" height="24" viewBox="0 0 24 24" fill="none" xmlns="http://www.w3.org/2000/svg">
<path fill-rule="evenodd" clip-rule="evenodd" d="M11.4532 2.28459C11.7759 2.03783 12.2239 2.03783 12.5466 2.28459L21.0466 8.78453C21.2692 8.95481 21.3999 9.21913 21.3999 9.49946L21.3999 18.9293C21.3999 19.1836 21.3999 19.4257 21.3832 19.6296C21.3651 19.852 21.3227 20.1071 21.1928 20.3621C21.0106 20.7196 20.7199 21.0103 20.3624 21.1924C20.1075 21.3223 19.8524 21.3647 19.6299 21.3829C19.426 21.3996 19.184 21.3995 18.9297 21.3995L12.9001 21.3995V13.9999H11.1001V21.3995L5.0701 21.3995C4.8158 21.3995 4.57372 21.3996 4.36977 21.3829C4.14736 21.3647 3.89225 21.3223 3.63728 21.1924C3.27977 21.0103 2.9891 20.7196 2.80695 20.3621C2.67703 20.1071 2.63464 19.852 2.61647 19.6296C2.59981 19.4256 2.59983 19.1836 2.59986 18.9293L2.59986 9.49946C2.59986 9.21913 2.73048 8.95481 2.95316 8.78453L11.4532 2.28459Z" fill="black"/>
</svg>
