<svg width="320" height="85" viewBox="0 0 320 85" fill="none" xmlns="http://www.w3.org/2000/svg">
<g clip-path="url(#clip0_349_7983)">
<path d="M60.1119 66.6494L54.5437 62.6231L59.1811 58.8607C59.2497 58.8182 59.2934 58.8118 59.3179 58.8118C59.3435 58.8118 59.39 58.8188 59.4638 58.8665L71.5186 67.6683L71.5524 67.693L71.561 67.6973C71.564 67.7025 71.5678 67.7097 71.5719 67.7189C71.5809 67.7391 71.5887 67.7631 71.594 67.7876C71.5994 67.8127 71.6006 67.831 71.6006 67.8391V82.4677H60.8978C60.8278 82.4677 60.7578 82.4404 60.709 82.3957C60.6666 82.3569 60.6318 82.2982 60.6318 82.2017V67.6476C60.6318 67.4793 60.5921 67.2906 60.5169 67.1213C60.449 66.9686 60.325 66.7723 60.1119 66.6494Z" fill="#FF6B0A" stroke="#FF6B0A"/>
<path d="M50.748 70.7114H44.8114C44.5999 70.7114 44.4285 70.8829 44.4285 71.0944V77.031C44.4285 77.2425 44.5999 77.414 44.8114 77.414H50.748C50.9595 77.414 51.131 77.2425 51.131 77.031V71.0944C51.131 70.8829 50.9595 70.7114 50.748 70.7114Z" stroke="#FF6B0A" stroke-width="2" stroke-miterlimit="10"/>
<path d="M128.189 45.9121V57.5725H120.263C120.006 57.5725 119.753 57.6604 119.563 57.8506C119.373 58.0407 119.285 58.294 119.285 58.5512V82.5635H112.625V45.9121C112.625 45.7095 112.784 45.5503 112.986 45.5503H127.828C128.03 45.5503 128.189 45.7095 128.189 45.9121Z" fill="#FF6B0A" stroke="#FF6B0A"/>
<path d="M0 83.3505H35.1407C35.8109 83.3505 36.2897 82.8718 36.2897 82.2015V68.7006C36.2897 68.3176 36.4812 68.0304 36.7684 67.8389L47.2053 59.7957C47.5883 59.5085 48.1628 59.5085 48.5458 59.7957L54.2909 64.0088L59.6529 67.8389C59.9402 68.0304 60.1317 68.4134 60.1317 68.7964V82.2015C60.1317 82.8718 60.6104 83.3505 61.2807 83.3505H118.827C119.497 83.3505 119.976 82.8718 119.976 82.2015V60.2745C119.976 58.934 121.029 57.8807 122.37 57.8807H145.446C146.308 57.8807 147.074 58.6467 147.074 59.5085V66.6898C147.074 67.3601 147.552 67.8389 148.223 67.8389H158.468C159.33 67.8389 160.096 68.6049 160.096 69.4666V82.2015C160.096 82.8718 160.575 83.3505 161.245 83.3505H224.153C224.823 83.3505 225.302 82.8718 225.302 82.2015V39.305C225.302 39.0178 225.398 38.7305 225.589 38.539L235.356 28.7724C236.026 28.1022 237.271 28.5809 237.271 29.5384V50.3164C237.271 50.9867 237.75 51.4654 238.42 51.4654H241.963C242.633 51.4654 243.112 50.9867 243.112 50.3164V20.4421C243.112 19.4846 243.878 18.6228 244.931 18.6228H254.794C255.847 18.6228 256.613 19.4846 256.613 20.4421V82.2972C256.613 82.9675 257.092 83.4463 257.762 83.4463H320" stroke="#FF6B0A" stroke-width="2" stroke-miterlimit="10"/>
<path d="M237.558 60.9447V82.01C237.558 82.776 237.846 83.3505 238.229 83.3505H242.537C242.92 83.3505 243.208 82.776 243.208 82.01V60.9447C243.208 60.1787 242.92 59.6042 242.537 59.6042H238.229C237.846 59.6042 237.558 60.1787 237.558 60.9447Z" stroke="#FF6B0A" stroke-width="2" stroke-miterlimit="10"/>
<path d="M270.763 26.9533V82.4676H257.304V29.9215V29.9134L257.113 18.136L257.105 17.6441H256.613H254.844C254.909 17.3604 254.996 16.986 255.103 16.54C255.357 15.4816 255.72 14.0208 256.161 12.4116C257.047 9.17854 258.233 5.39582 259.45 3.05462C260.052 1.89695 260.64 1.21505 261.166 0.852484C261.677 0.500904 262.136 0.443505 262.55 0.544803C262.984 0.65099 263.423 0.946143 263.835 1.39703C264.243 1.8449 264.599 2.41924 264.869 3.02702L264.871 3.03049C266.955 7.62451 268.43 13.2557 269.384 17.9329C269.861 20.2684 270.206 22.3589 270.433 23.9534C270.661 25.5631 270.763 26.6353 270.763 26.9533Z" fill="#FF6B0A" stroke="#FF6B0A"/>
</g>
<defs>
<clipPath id="clip0_349_7983">
<rect width="320" height="85" fill="white"/>
</clipPath>
</defs>
</svg>
