<svg width="100" height="100" viewBox="0 0 100 100" fill="none" xmlns="http://www.w3.org/2000/svg">
<path d="M50.1484 16.0046C35.7053 16.0046 24 27.7099 24 42.153C24 53.0123 38.9113 72.8668 46.3102 82.0482C48.3929 84.6314 52.3356 84.6132 54.3957 82.0121C61.6763 72.8168 76.2964 52.994 76.2964 42.1482C76.2964 27.7053 64.5911 16 50.1484 16V16.0046ZM53.377 73.649C51.7945 75.6409 48.7704 75.65 47.1742 73.6672C41.508 66.6184 30.0892 51.3752 30.0982 43.0442C30.1119 31.9664 39.1022 22.9986 50.1801 23.0123C61.258 23.0259 70.2255 32.0164 70.212 43.0941C70.2029 51.4116 58.9705 66.6002 53.377 73.649Z" fill="#EAEBEE"/>
<path d="M59 57.5C62.0361 57.5 64.5 55.0459 64.5 52.0154C64.5 51.2401 64.1973 50.0136 63.7737 48.67C63.3432 47.3042 62.7652 45.7502 62.1717 44.2874C61.5781 42.8245 60.9656 41.4443 60.4642 40.4257C60.2143 39.9181 59.9874 39.4908 59.801 39.1857C59.7091 39.0352 59.6182 38.8997 59.5321 38.7962C59.49 38.7455 59.4364 38.6871 59.373 38.6371C59.3263 38.6002 59.1921 38.5 59 38.5C58.8079 38.5 58.6737 38.6002 58.627 38.6371C58.5636 38.6871 58.51 38.7455 58.4679 38.7962C58.3818 38.8997 58.2909 39.0352 58.199 39.1857C58.0126 39.4908 57.7857 39.9181 57.5358 40.4257C57.0344 41.4443 56.4219 42.8245 55.8283 44.2874C55.2348 45.7502 54.6568 47.3042 54.2263 48.67C53.8027 50.0136 53.5 51.2401 53.5 52.0154C53.5 55.0459 55.9639 57.5 59 57.5Z" fill="#EAEBEE" stroke="white"/>
<path d="M54.7178 45.9333C53.3162 45.3239 51.7723 44.9965 50.1615 45.0035L50.1547 45C45.4819 45.0171 41.5732 47.9614 40.1777 52.4576C39.8482 53.5171 39.8991 54.4205 41.0062 54.855C42.1201 55.2931 42.8604 54.6956 43.2101 53.6393C44.324 50.2943 46.5314 48.2601 50.1378 48.2161C51.4748 48.1988 52.6483 48.4485 53.6683 48.9313C53.9593 47.9976 54.3239 46.9668 54.7178 45.9333Z" fill="#EAEBEE"/>
</svg>
