<svg width="66" height="24" viewBox="0 0 66 24" fill="none" xmlns="http://www.w3.org/2000/svg">
<rect width="66" height="24" fill="white"/>
<path d="M3.95465 7.14066V6.89296H0.698118V4.26897H10.0747V6.89296H6.89346V7.25401C6.89346 7.5395 6.85584 7.80399 6.81822 8.0517C7.80479 8.88717 9.46858 9.76464 11.0613 10.2978L9.63998 12.7329C7.972 12.0863 6.47542 11.2887 5.49303 10.4112C4.48973 11.4566 3.06839 12.3131 1.64706 13.0352L0 10.7345C2.27413 9.66808 3.95882 8.68146 3.95882 7.14066H3.95465ZM1.831 13.4172H4.86178V14.2737H11.9643V13.4172H14.9951V19.9625H1.82683V13.4172H1.831ZM11.9684 17.5652V16.5954H4.86597V17.5652H11.9684ZM11.9684 4.03806H14.9992V12.5985H11.9684V4.03806Z" fill="#FF6B0A"/>
<path d="M26.9803 19.299H17.8671V4.30667H20.8978V16.6373H26.9803V19.299ZM28.2846 4.03796H31.3154V9.99545H33.2467V12.6572H31.3154V19.9624H28.2846V4.03796Z" fill="#FF6B0A"/>
<path d="M34.0702 9.49987H49.8721V11.8216H34.0702V9.49987ZM48.6388 4V6.13278H38.3342V6.72055H48.7726V8.85332H35.3034V4H48.6388ZM35.3034 12.4849H48.5636V17.2207H38.447V17.8294H48.8479V20H35.4163V15.2642H45.5328V14.6555H35.3034V12.4849Z" fill="#FF6B0A"/>
<path d="M56.1092 4.17231H56.6192C59.0647 4.17231 60.8456 5.67533 60.8456 8.13138V15.5499C60.8456 18.006 59.0647 19.509 56.6192 19.509H56.1092C53.6637 19.509 51.8828 18.006 51.8828 15.5499V8.13138C51.8828 5.67533 53.6637 4.17231 56.1092 4.17231ZM56.2221 16.843H56.5063C57.263 16.843 57.8524 16.3686 57.8524 15.4911V8.18596C57.8524 7.3127 57.2672 6.83408 56.5063 6.83408H56.2221C55.4654 6.83408 54.876 7.3085 54.876 8.18596V15.4911C54.876 16.3644 55.4612 16.843 56.2221 16.843ZM62.9692 4.03796H66V19.9624H62.9692V4.03796Z" fill="#FF6B0A"/>
</svg>
