<svg width="24" height="24" viewBox="0 0 24 24" fill="none" xmlns="http://www.w3.org/2000/svg">
<rect width="24" height="24" fill="white"/>
<path d="M16.7212 2.39148C14.9112 2.39148 13.2596 3.06294 11.9981 4.16793C10.7379 3.06294 9.08621 2.39148 7.27751 2.39148C3.32104 2.39148 0.11499 5.59681 0.11499 9.5496C0.11499 12.522 4.19984 17.9585 6.22669 20.4724C6.79635 21.18 7.87708 21.175 8.44176 20.4624C9.3941 19.259 10.8064 17.3916 12.0205 15.447C13.2596 17.3979 14.7005 19.269 15.6703 20.4724C16.24 21.18 17.3207 21.175 17.8854 20.4624C19.8798 17.9448 23.8849 12.5182 23.8849 9.5496C23.8849 5.59557 20.6776 2.39148 16.7224 2.39148H16.7212ZM8.16254 18.1727C7.72875 18.7184 6.90106 18.7209 6.46353 18.1777C4.91161 16.248 1.78284 12.0748 1.78533 9.79377C1.78907 6.7616 4.2522 4.30621 7.28623 4.30995C10.3203 4.31368 12.7772 6.7753 12.7734 9.80748C12.7709 12.0847 9.69327 16.2431 8.16129 18.1727H8.16254ZM20.4832 11.1118C19.8624 12.7101 18.3491 13.7428 16.6277 13.7366C15.446 13.7316 14.4014 13.2159 13.6971 12.3563C13.914 11.8617 14.0922 11.3834 14.2206 10.9324C14.6632 11.9402 15.4348 12.5432 16.6214 12.5581C17.9752 12.5756 18.8727 11.8468 19.3887 10.6334C19.5682 10.2123 19.8213 9.9333 20.2812 10.1463C20.7225 10.3506 20.629 10.7381 20.4832 11.1118Z" fill="#FF6B0A"/>
<path d="M11.0618 10.6244C10.6018 10.4114 10.3475 10.6905 10.1693 11.1115C9.65197 12.3249 8.75571 13.0537 7.40199 13.0362C6.07943 13.0188 5.27044 12.2738 4.86158 11.048C4.73194 10.6606 4.46145 10.4413 4.05259 10.602C3.64747 10.7615 3.62877 11.0928 3.74968 11.4815C4.26325 13.1297 5.6955 14.2085 7.41072 14.2147C9.13341 14.2222 10.6467 13.1882 11.2662 11.5899C11.4108 11.2162 11.5055 10.8287 11.0643 10.6244H11.0618Z" fill="#FF6B0A"/>
</svg>
