<svg width="17" height="16" viewBox="0 0 17 16" fill="none" xmlns="http://www.w3.org/2000/svg">
<g id="Icon/map-pin">
<path id="Subtract" fill-rule="evenodd" clip-rule="evenodd" d="M8.5 15.3334C8.5 15.3334 14.5 11.3334 14.5 6.66675C14.5 5.07545 13.8679 3.54933 12.7426 2.42411C11.6174 1.29889 10.0913 0.666748 8.5 0.666748C6.9087 0.666748 5.38258 1.29889 4.25736 2.42411C3.13214 3.54933 2.5 5.07545 2.5 6.66675C2.5 11.3334 8.5 15.3334 8.5 15.3334ZM10.5 6.66675C10.5 7.77132 9.60457 8.66675 8.5 8.66675C7.39543 8.66675 6.5 7.77132 6.5 6.66675C6.5 5.56218 7.39543 4.66675 8.5 4.66675C9.60457 4.66675 10.5 5.56218 10.5 6.66675Z" fill="#9A9A9A"/>
</g>
</svg>
